<?xml version="1.0" standalone="no"?>
<!DOCTYPE svg PUBLIC "-//W3C//DTD SVG 20010904//EN"
 "http://www.w3.org/TR/2001/REC-SVG-20010904/DTD/svg10.dtd">
<svg version="1.0" xmlns="http://www.w3.org/2000/svg"
 width="260.000000pt" height="260.000000pt" viewBox="0 0 260.000000 260.000000"
 preserveAspectRatio="xMidYMid meet">
<metadata>
Created by potrace 1.14, written by Peter Selinger 2001-2017
</metadata>
<g transform="translate(0.000000,260.000000) scale(0.100000,-0.100000)"
fill="#000000" stroke="none">
<path d="M1070 2560 c-79 -8 -143 -23 -198 -46 -18 -8 -40 -14 -49 -14 -23 0
-123 -49 -156 -76 -16 -13 -33 -24 -39 -24 -5 0 -36 -20 -68 -44 -32 -25 -71
-51 -87 -60 -42 -21 -160 -150 -220 -240 -29 -43 -53 -81 -53 -86 0 -4 -7 -14
-16 -21 -32 -27 -94 -180 -131 -324 -24 -96 -24 -464 1 -540 9 -27 16 -60 16
-72 0 -12 6 -37 14 -55 8 -18 22 -51 31 -73 27 -66 49 -105 68 -122 9 -9 17
-19 17 -23 0 -14 70 -124 107 -169 50 -59 139 -143 188 -177 22 -15 68 -47
103 -71 92 -64 157 -97 242 -122 41 -12 84 -26 96 -31 11 -4 63 -14 115 -21
73 -11 87 -15 64 -20 -16 -4 49 -7 145 -7 106 0 167 3 155 8 -11 5 -16 9 -12
9 182 16 411 93 501 168 22 18 43 33 48 33 4 0 35 21 69 48 33 26 72 56 87 67
43 32 122 117 149 161 90 145 143 241 143 259 0 7 8 23 19 36 10 13 21 40 25
59 4 19 11 44 15 55 26 64 36 151 35 330 0 191 -5 224 -48 370 -16 57 -113
251 -145 291 -12 15 -21 31 -21 36 0 45 -218 250 -351 330 -34 21 -69 44 -78
51 -24 19 -91 48 -186 78 -33 10 -81 26 -107 34 -55 18 -370 28 -488 15z m406
-55 c27 -8 63 -15 80 -15 16 0 39 -7 50 -15 10 -8 31 -15 46 -15 15 0 29 -4
32 -8 3 -4 31 -21 63 -36 32 -15 65 -32 73 -36 8 -5 32 -18 54 -30 109 -59
294 -228 345 -313 13 -23 27 -44 31 -47 23 -19 96 -162 121 -238 45 -138 49
-153 49 -173 0 -11 7 -34 17 -52 23 -44 23 -272 1 -343 -15 -46 -26 -86 -49
-179 -11 -48 -16 -58 -65 -158 -45 -91 -45 -90 -107 -184 -76 -113 -253 -264
-400 -338 -40 -20 -83 -43 -97 -50 -52 -27 -101 -45 -123 -45 -13 0 -29 -6
-35 -13 -7 -6 -48 -15 -90 -19 -42 -4 -110 -10 -151 -14 -85 -8 -286 11 -346
32 -23 8 -50 14 -61 14 -11 0 -29 7 -40 15 -10 8 -28 15 -38 15 -10 0 -43 16
-72 35 -29 19 -59 35 -67 35 -8 0 -20 7 -27 15 -7 8 -17 15 -22 15 -14 0 -198
142 -247 191 -46 47 -140 182 -182 264 -14 28 -37 73 -51 100 -27 51 -58 144
-58 174 0 9 -7 34 -15 56 -10 28 -14 87 -15 199 0 158 6 204 45 327 8 26 15
55 15 66 0 10 7 29 16 42 9 12 33 55 53 94 49 95 141 228 199 287 44 44 188
157 222 173 8 4 29 16 45 27 17 11 37 22 45 26 8 3 33 15 55 27 91 48 137 65
205 77 25 4 59 13 75 18 49 17 363 15 421 -3z"/>
<path d="M637 1993 c-18 -17 -5 -33 26 -33 18 0 48 -11 69 -25 53 -36 68 -96
68 -274 0 -147 -7 -181 -44 -200 -36 -18 -58 -34 -146 -101 -209 -158 -250
-215 -258 -356 -5 -92 8 -127 60 -168 42 -32 175 -66 275 -71 43 -2 81 -4 84
-4 13 -2 79 -95 79 -113 0 -47 129 -188 172 -188 8 0 19 -5 25 -11 18 -18 184
-29 271 -20 184 21 285 98 342 263 29 83 54 247 43 287 -3 11 -1 33 4 48 19
55 -15 73 -56 30 -18 -20 -20 -28 -11 -51 37 -99 -28 -318 -121 -405 -52 -48
-186 -89 -233 -71 -15 5 -36 10 -47 10 -12 0 -45 16 -74 35 -61 41 -91 89
-101 164 -8 58 -3 62 95 80 86 17 218 71 315 129 27 16 33 35 11 38 -5 0 -17
2 -25 2 -9 1 -22 18 -29 37 -7 19 -17 35 -22 35 -13 0 -11 34 3 48 23 23 -46
13 -96 -13 -78 -42 -236 -90 -255 -78 -14 9 -16 41 -19 241 l-2 230 29 21 c16
12 32 21 36 21 3 0 48 20 98 44 118 57 181 85 237 107 l45 18 -44 1 c-40 0
-108 -15 -186 -42 -16 -5 -46 -14 -65 -18 -19 -5 -54 -14 -77 -20 -71 -20 -73
-17 -73 121 0 105 3 126 20 154 23 38 74 65 120 65 25 0 31 3 26 16 -3 9 -6
18 -6 20 0 7 -556 4 -563 -3z m156 -720 c3 -10 5 -67 5 -126 1 -103 -9 -160
-29 -173 -13 -8 -86 54 -102 88 -22 45 2 112 78 214 14 20 43 17 48 -3z"/>
<path d="M1497 1986 c-7 -19 1 -26 32 -26 30 0 70 -24 101 -60 18 -20 21 -36
20 -85 -1 -33 -2 -163 -1 -290 l1 -230 27 27 27 27 -1 248 c-1 211 1 253 15
282 23 47 61 72 116 78 48 6 54 11 34 31 -19 19 -364 17 -371 -2z"/>
<path d="M1953 1875 c-5 -8 -18 -17 -29 -22 -19 -7 -20 -10 -7 -40 21 -51 72
-43 84 12 6 26 -37 71 -48 50z"/>
</g>
</svg>
